<svg xmlns="http://www.w3.org/2000/svg" width="123.508" height="118.811" viewBox="0 0 123.508 118.811">
  <g id="Group_3" data-name="Group 3" transform="translate(-20.746 -23.094)">
    <g id="Group_1" data-name="Group 1" transform="translate(816.791 -1340.226)">
      <path id="Path_1" data-name="Path 1" d="M-724.479,1431.49a34.527,34.527,0,0,1,5.928-12.669c5.622-7.532,13.559-10.36,22.562-10.877,11.051-.635,20.547,2.844,28.333,10.819a84.357,84.357,0,0,0,7.649,7.325,17.852,17.852,0,0,0,23.38-.49c1.509-1.318,2.891-2.781,4.529-4.367a18.2,18.2,0,0,1-1.638,5.365c-5.785,14.513-18.21,19.173-31.969,18.318-10.008-.622-18-5.09-24.675-12.307-1.417-1.533-2.974-2.937-4.477-4.39-8.445-8.167-20.088-7.01-27.873,1.766C-723.188,1430.5-723.452,1431.238-724.479,1431.49Z" transform="translate(-40.438 0)" fill="#38bcf7"/>
      <path id="Path_2" data-name="Path 2" d="M-796.045,1517.4c3.392-14.058,12.387-22.129,24.852-23.7a39.394,39.394,0,0,1,20.151,2.222,35.723,35.723,0,0,1,11.327,7.765c2.433,2.352,4.793,4.788,7.326,7.028,7.321,6.476,16.934,6.512,24.361.134,1.46-1.254,2.763-2.689,4.581-4.476a33.582,33.582,0,0,1-7.054,14.368,26.772,26.772,0,0,1-16.931,9.092c-8.953,1.383-17.526.385-25.431-4.316-4-2.378-7.243-5.676-10.484-8.96-1.113-1.127-2.217-2.272-3.412-3.308-8.707-7.549-19.6-6.735-27.372,2.014C-794.648,1515.837-795.168,1516.416-796.045,1517.4Z" transform="translate(0 -48.266)" fill="#38bcf7"/>
    </g>
    <text id="Tailwind" transform="translate(51 44.094)" fill="#fff" font-size="20" font-family="RobotoCondensed-Bold, Roboto" font-weight="700"><tspan x="0" y="0">Tailwind</tspan></text>
  </g>
</svg>
