<svg xmlns="http://www.w3.org/2000/svg" width="175.135" height="147.182" viewBox="0 0 175.135 147.182">
  <g id="Group_96342" data-name="Group 96342" transform="translate(5519.511 -23061.77)">
    <path id="Subtraction_5" data-name="Subtraction 5" d="M110.833,104.057c-2.162,0-3.37-.351-3.917-1.138s-.466-2.029.241-3.929a47.525,47.525,0,0,0,1.627-5.878c.121-.524.246-1.066.374-1.6a10.026,10.026,0,0,1,1.8-4.159,7.837,7.837,0,0,1,4.332-2.435c6.791-1.731,9.313-8.5,10.62-13.438,3.481-13.157,7.427-28.068,10.715-42.755.543-2.426,1.307-4.866,2.046-7.226,1.945-6.213,3.956-12.637,2.194-19.53a1.873,1.873,0,0,1,.074-1.594,1.22,1.22,0,0,1,1.037-.365c.227,0,.461.021.722.047.242.025.47.048.665.048h.021l2.778-.03h.006C149.566.039,153.076,0,156.528,0c3.591,0,6.746.043,9.647.132,2.236.069,3.868.71,4.851,1.9,1.043,1.267,1.365,3.167.957,5.647a33.643,33.643,0,0,1-1.671,5.59,43.117,43.117,0,0,0-1.417,4.4l-.03,0-8,35.267-1.339,5.987.024.024-.222.993c-1.1,4.92-2.239,10.009-3.252,15.034a8.24,8.24,0,0,0,1.089,6.4,9.6,9.6,0,0,0,6.5,3.775c1.506.27,2.536.581,3.012,1.3.413.621.43,1.554.059,3.22l-.085.382c-1.543,6.91-2.317,10.378-4.494,12.131-2.212,1.782-6.006,1.782-12.893,1.782h-.27c-3.515,0-7.089-.01-10.545-.02h-.021c-3.452-.01-7.021-.02-10.531-.02-6.53,0-11.833.037-16.687.117C111.082,104.056,110.956,104.057,110.833,104.057Z" transform="translate(-5594.792 23104.395)" fill="#23272d" stroke="rgba(0,0,0,0)" stroke-miterlimit="10" stroke-width="1"/>
    <g id="Group_96341" data-name="Group 96341" transform="translate(-5714.5 22742.43)">
      <path id="Path_143410" data-name="Path 143410" d="M329.354,370.031c2.107-5.953,4.024-11.754,6.216-17.449,1.835-4.77.428-6.338-4.646-6.318-34.978.136-69.964-.32-104.932.267-13.7.23-22.539-4.7-26.954-17.644-1.081-3.17-2.61-6.188-4.049-9.548,30.939,2.909,61.6,1.041,92.223,1.438,20.983.273,41.973.019,62.96.063,16.312.035,22.331,8.128,19.12,24.23-2.458,12.322-7.707,22.089-20.756,24.75C342.474,371.056,335.95,370.031,329.354,370.031Z" fill="#21252b"/>
    </g>
  </g>
</svg>
